<svg width="166" height="167" viewBox="0 0 166 167" fill="none" xmlns="http://www.w3.org/2000/svg">
<g clip-path="url(#clip0)">
<path d="M83 167C128.84 167 166 129.616 166 83.5C166 37.3842 128.84 0 83 0C37.1604 0 0 37.3842 0 83.5C0 129.616 37.1604 167 83 167Z" fill="#16A085"/>
<path d="M36.3438 102.148C34.0391 101.497 32.3008 100.423 31.1289 98.9258C29.9701 97.4414 29.3906 95.4753 29.3906 93.0273V89.1406C29.3906 85.9766 28.0104 84.3945 25.25 84.3945V81.5625C28.0104 81.5625 29.3906 79.987 29.3906 76.8359V72.7734C29.4167 70.3906 29.9961 68.4701 31.1289 67.0117C32.2747 65.5404 34.013 64.4727 36.3438 63.8086L37.0859 66.0547C34.3646 66.9271 33.0039 69.1992 33.0039 72.8711V76.8164C33.0039 79.7721 31.9167 81.8294 29.7422 82.9883C31.9167 84.1602 33.0039 86.237 33.0039 89.2188V93.2422C33.043 96.8229 34.4036 99.043 37.0859 99.9023L36.3438 102.148ZM61.8516 91.2695C60.888 92.6497 59.5404 93.6849 57.8086 94.375C56.0898 95.0521 54.0846 95.3906 51.793 95.3906C49.4753 95.3906 47.418 94.8503 45.6211 93.7695C43.8242 92.6758 42.431 91.1263 41.4414 89.1211C40.4648 87.1159 39.9635 84.7917 39.9375 82.1484V79.668C39.9375 75.3841 40.9336 72.0638 42.9258 69.707C44.931 67.3503 47.7435 66.1719 51.3633 66.1719C54.332 66.1719 56.7214 66.9336 58.5312 68.457C60.3411 69.9674 61.4479 72.1159 61.8516 74.9023H58.1016C57.3984 71.1393 55.1589 69.2578 51.3828 69.2578C48.8698 69.2578 46.9622 70.1432 45.6602 71.9141C44.3711 73.6719 43.7201 76.224 43.707 79.5703V81.8945C43.707 85.0846 44.4362 87.6237 45.8945 89.5117C47.3529 91.3867 49.3255 92.3242 51.8125 92.3242C53.2188 92.3242 54.4492 92.168 55.5039 91.8555C56.5586 91.543 57.431 91.0156 58.1211 90.2734V83.8867H51.5391V80.8398H61.8516V91.2695ZM79.0586 95H75.4258V70.918L68.1406 73.5938V70.3125L78.4922 66.4258H79.0586V95ZM104.898 85.4492H108.844V88.3984H104.898V95H101.266V88.3984H88.3164V86.2695L101.051 66.5625H104.898V85.4492ZM92.418 85.4492H101.266V71.5039L100.836 72.2852L92.418 85.4492ZM130.465 68.5938L118.688 95H114.898L126.637 69.5312H111.246V66.5625H130.465V68.5938ZM132.574 99.9023C135.217 99.056 136.585 96.901 136.676 93.4375V89.1406C136.676 86.1328 137.854 84.082 140.211 82.9883C137.854 81.9206 136.676 79.8698 136.676 76.8359V72.8711C136.676 69.1992 135.315 66.9271 132.594 66.0547L133.336 63.8086C135.641 64.4596 137.372 65.5208 138.531 66.9922C139.69 68.4505 140.276 70.3841 140.289 72.793V76.8945C140.289 80.0065 141.669 81.5625 144.43 81.5625V84.3945C141.669 84.3945 140.289 85.9766 140.289 89.1406V93.0859C140.289 95.5339 139.697 97.4935 138.512 98.9648C137.34 100.436 135.615 101.497 133.336 102.148L132.574 99.9023Z" fill="white"/>
</g>
<defs>
<clipPath id="clip0">
<rect width="166" height="167" fill="white"/>
</clipPath>
</defs>
</svg>
